<svg width="24" height="24" viewBox="0 0 24 24" fill="none" xmlns="http://www.w3.org/2000/svg">
<rect x="3" y="4" width="17.61" height="2.5" rx="1.18" fill="#9B9B9B"/>
<path fill-rule="evenodd" clip-rule="evenodd" d="M4.41743 8.38762C4.6168 8.18824 4.88799 8.07743 5.16994 8.08013H18.4499C18.7319 8.07743 19.0031 8.18824 19.2024 8.38762C19.4018 8.58699 19.5126 8.85818 19.5099 9.14013V17.9101C19.5153 18.6501 19.2264 19.3619 18.7069 19.8888C18.1874 20.4158 17.4799 20.7148 16.7399 20.7201H6.87994C6.13998 20.7148 5.43242 20.4158 4.91294 19.8888C4.39346 19.3619 4.10461 18.6501 4.10994 17.9101V9.14013C4.10724 8.85818 4.21805 8.58699 4.41743 8.38762ZM9.41994 12.8901H14.1699H14.1999C14.4857 12.8901 14.7499 12.7376 14.8928 12.4901C15.0357 12.2426 15.0357 11.9376 14.8928 11.6901C14.7499 11.4426 14.4857 11.2901 14.1999 11.2901H9.41994C8.97811 11.2901 8.61994 11.6483 8.61994 12.0901C8.61994 12.532 8.97811 12.8901 9.41994 12.8901Z" fill="#9B9B9B"/>
</svg>
