<svg width="24" height="24" viewBox="0 0 24 24" fill="none" xmlns="http://www.w3.org/2000/svg">
<rect x="3" y="4" width="17.61" height="2.5" rx="1.18" fill="#007D7D"/>
<path fill-rule="evenodd" clip-rule="evenodd" d="M4.4175 8.38766C4.61687 8.18829 4.88806 8.07747 5.17001 8.08017H18.45C18.732 8.07747 19.0031 8.18829 19.2025 8.38766C19.4019 8.58704 19.5127 8.85822 19.51 9.14017V17.9102C19.5153 18.6501 19.2265 19.3619 18.707 19.8889C18.1875 20.4159 17.48 20.7149 16.74 20.7202H6.88001C6.14005 20.7149 5.43249 20.4159 4.91301 19.8889C4.39353 19.3619 4.10468 18.6501 4.11001 17.9102V9.14017C4.10731 8.85822 4.21812 8.58704 4.4175 8.38766ZM9.42001 12.8902H14.17H14.2C14.4858 12.8902 14.7499 12.7377 14.8928 12.4902C15.0357 12.2427 15.0357 11.9377 14.8928 11.6902C14.7499 11.4427 14.4858 11.2902 14.2 11.2902H9.42001C8.97818 11.2902 8.62001 11.6483 8.62001 12.0902C8.62001 12.532 8.97818 12.8902 9.42001 12.8902Z" fill="#007D7D"/>
</svg>
