<svg width="24" height="24" viewBox="0 0 24 24" fill="none" xmlns="http://www.w3.org/2000/svg">
<path fill-rule="evenodd" clip-rule="evenodd" d="M16.29 2.0002H11C9.04486 2.00923 7.38277 3.43025 7.06997 5.3602C5.15497 5.61915 3.72243 7.24781 3.70997 9.1802V17.3502C3.70731 18.5843 4.19636 19.7686 5.06899 20.6412C5.94161 21.5138 7.1259 22.0029 8.35997 22.0002H13.36C15.2483 22.0009 16.8659 20.6487 17.2 18.7902C19.0275 18.383 20.328 16.7625 20.33 14.8902V6.0002C20.33 4.93237 19.9031 3.90884 19.1443 3.15754C18.3855 2.40623 17.3578 1.98952 16.29 2.0002ZM10.18 6.8802H15.57C15.9842 6.8802 16.32 7.21599 16.32 7.6302C16.32 8.04441 15.9842 8.3802 15.57 8.3802H10.18C9.76576 8.3802 9.42997 8.04441 9.42997 7.6302C9.42997 7.21599 9.76576 6.8802 10.18 6.8802ZM8.31997 20.6702H13.32C14.4526 20.6715 15.4558 19.9393 15.8 18.8602H11C8.79083 18.8602 6.99997 17.0693 6.99997 14.8602V6.6802C5.83435 6.9491 5.00645 7.98398 4.99997 9.1802V17.3502C5.01089 19.1792 6.49093 20.6593 8.31997 20.6702ZM9.42997 14.0702C9.42997 13.656 9.76576 13.3202 10.18 13.3202H14C14.4142 13.3202 14.75 13.656 14.75 14.0702C14.75 14.4844 14.4142 14.8202 14 14.8202H10.18C9.76576 14.8202 9.42997 14.4844 9.42997 14.0702ZM10.18 11.6002H17.11C17.5242 11.6002 17.86 11.2644 17.86 10.8502C17.86 10.436 17.5242 10.1002 17.11 10.1002H10.18C9.76576 10.1002 9.42997 10.436 9.42997 10.8502C9.42997 11.2644 9.76576 11.6002 10.18 11.6002Z" fill="#9B9B9B"/>
</svg>
