<svg width="24" height="24" viewBox="0 0 24 24" fill="none" xmlns="http://www.w3.org/2000/svg">
<path fill-rule="evenodd" clip-rule="evenodd" d="M16.29 1.99996H11C9.04489 2.00899 7.3828 3.43001 7.07 5.35996C5.155 5.6189 3.72246 7.24757 3.71 9.17996V17.35C3.70734 18.584 4.19639 19.7683 5.06902 20.6409C5.94164 21.5136 7.12593 22.0026 8.36 22H13.36C15.2483 22.0007 16.8659 20.6485 17.2 18.79C19.0275 18.3827 20.328 16.7623 20.33 14.89V5.99996C20.3301 4.93212 19.9031 3.9086 19.1443 3.15729C18.3855 2.40599 17.3578 1.98928 16.29 1.99996ZM10.18 6.87996H15.57C15.9842 6.87996 16.32 7.21574 16.32 7.62996C16.32 8.04417 15.9842 8.37996 15.57 8.37996H10.18C9.76579 8.37996 9.43 8.04417 9.43 7.62996C9.43 7.21574 9.76579 6.87996 10.18 6.87996ZM8.32 20.67H13.32C14.4527 20.6712 15.4558 19.9391 15.8 18.86H11C8.79086 18.86 7 17.0691 7 14.86V6.67996C5.83438 6.94886 5.00648 7.98374 5 9.17996V17.35C5.01092 19.179 6.49096 20.659 8.32 20.67ZM9.43 14.07C9.43 13.6557 9.76579 13.32 10.18 13.32H14C14.4142 13.32 14.75 13.6557 14.75 14.07C14.75 14.4842 14.4142 14.82 14 14.82H10.18C9.76579 14.82 9.43 14.4842 9.43 14.07ZM10.18 11.6H17.11C17.5242 11.6 17.86 11.2642 17.86 10.85C17.86 10.4357 17.5242 10.1 17.11 10.1H10.18C9.76579 10.1 9.43 10.4357 9.43 10.85C9.43 11.2642 9.76579 11.6 10.18 11.6Z" fill="#9B9B9B"/>
</svg>
