<svg width="24" height="24" viewBox="0 0 24 24" fill="none" xmlns="http://www.w3.org/2000/svg">
<path d="M18.3143 11.2192C18.0727 11.2192 17.8494 11.3481 17.7287 11.5573C17.6079 11.7666 17.6079 12.0243 17.7287 12.2335C17.8494 12.4427 18.0727 12.5716 18.3143 12.5716H21.8952H22V11.2002H21.8952L18.3143 11.2192Z" fill="#007D7D"/>
<path d="M21.8952 14.381H18.3143C16.9415 14.381 15.8286 13.2681 15.8286 11.8952C15.8286 10.5224 16.9415 9.40952 18.3143 9.40952H21.8952H22V7.80952C22 5.70558 20.2944 4 18.1905 4H5.80952C3.70558 4 2 5.70558 2 7.80952V15.981C2 18.0849 3.70558 19.7905 5.80952 19.7905H18.1905C20.2944 19.7905 22 18.0849 22 15.981V14.3619L21.8952 14.381Z" fill="#007D7D"/>
</svg>
